<mxfile host="app.diagrams.net" modified="2022-08-12T06:35:09.250Z" agent="5.0 (Windows NT 10.0; Win64; x64) AppleWebKit/537.36 (KHTML, like Gecko) Chrome/96.0.4664.110 Safari/537.36" etag="3TNBxeHIehi5TAxudGtw" version="20.2.3" type="github" pages="2">
  <diagram id="hTU8kjOW0qbDxu7hYfx1" name="自动化测试平台">
    <mxGraphModel dx="1185" dy="662" grid="0" gridSize="10" guides="1" tooltips="1" connect="1" arrows="1" fold="1" page="1" pageScale="1" pageWidth="827" pageHeight="1169" math="0" shadow="0">
      <root>
        <mxCell id="0" />
        <mxCell id="1" parent="0" />
      </root>
    </mxGraphModel>
  </diagram>
  <diagram id="1DzOxuTylJ1_WtZd4-0x" name="智能分发平台">
    <mxGraphModel dx="1422" dy="794" grid="0" gridSize="10" guides="1" tooltips="1" connect="1" arrows="1" fold="1" page="1" pageScale="1" pageWidth="827" pageHeight="1169" math="0" shadow="0">
      <root>
        <mxCell id="0" />
        <mxCell id="1" parent="0" />
        <mxCell id="L3S6r5yGj9gq8XAJiR9G-13" value="" style="rounded=1;whiteSpace=wrap;html=1;dashed=1;fillColor=#fff2cc;strokeColor=#d6b656;gradientColor=#ffd966;" vertex="1" parent="1">
          <mxGeometry x="14" y="61" width="792" height="245" as="geometry" />
        </mxCell>
        <mxCell id="L3S6r5yGj9gq8XAJiR9G-1" value="云素材【内容中台】" style="rounded=1;whiteSpace=wrap;html=1;" vertex="1" parent="1">
          <mxGeometry x="99" y="86" width="139" height="35" as="geometry" />
        </mxCell>
        <mxCell id="L3S6r5yGj9gq8XAJiR9G-4" value="创作中心" style="rounded=1;whiteSpace=wrap;html=1;" vertex="1" parent="1">
          <mxGeometry x="244" y="86" width="95" height="35" as="geometry" />
        </mxCell>
        <mxCell id="L3S6r5yGj9gq8XAJiR9G-5" value="智能分发" style="rounded=1;whiteSpace=wrap;html=1;" vertex="1" parent="1">
          <mxGeometry x="345" y="86" width="139" height="35" as="geometry" />
        </mxCell>
        <mxCell id="L3S6r5yGj9gq8XAJiR9G-6" value="分发账户" style="rounded=0;whiteSpace=wrap;html=1;" vertex="1" parent="1">
          <mxGeometry x="399" y="136" width="120" height="28" as="geometry" />
        </mxCell>
        <mxCell id="L3S6r5yGj9gq8XAJiR9G-7" value="智能分发" style="rounded=0;whiteSpace=wrap;html=1;" vertex="1" parent="1">
          <mxGeometry x="399" y="171" width="120" height="28" as="geometry" />
        </mxCell>
        <mxCell id="L3S6r5yGj9gq8XAJiR9G-8" value="数据中心" style="rounded=0;whiteSpace=wrap;html=1;" vertex="1" parent="1">
          <mxGeometry x="399" y="206" width="120" height="28" as="geometry" />
        </mxCell>
        <mxCell id="L3S6r5yGj9gq8XAJiR9G-11" value="运营管理" style="rounded=1;whiteSpace=wrap;html=1;" vertex="1" parent="1">
          <mxGeometry x="489" y="86" width="139" height="35" as="geometry" />
        </mxCell>
        <mxCell id="L3S6r5yGj9gq8XAJiR9G-12" value="达人平台" style="rounded=0;whiteSpace=wrap;html=1;" vertex="1" parent="1">
          <mxGeometry x="530" y="136" width="120" height="28" as="geometry" />
        </mxCell>
        <mxCell id="L3S6r5yGj9gq8XAJiR9G-14" value="清泉云图" style="text;html=1;strokeColor=none;fillColor=default;align=center;verticalAlign=middle;whiteSpace=wrap;rounded=0;dashed=1;" vertex="1" parent="1">
          <mxGeometry x="80" y="45" width="60" height="30" as="geometry" />
        </mxCell>
        <mxCell id="P5DT8XNTaOlzUunPJP3p-1" value="" style="rounded=1;whiteSpace=wrap;html=1;fillColor=#f5f5f5;dashed=1;gradientColor=#b3b3b3;strokeColor=#666666;" vertex="1" parent="1">
          <mxGeometry x="70.5" y="357" width="688" height="275" as="geometry" />
        </mxCell>
        <mxCell id="P5DT8XNTaOlzUunPJP3p-3" value="UserService" style="rounded=1;whiteSpace=wrap;html=1;" vertex="1" parent="1">
          <mxGeometry x="570.5" y="386" width="139" height="35" as="geometry" />
        </mxCell>
        <mxCell id="P5DT8XNTaOlzUunPJP3p-4" value="PublishService" style="rounded=1;whiteSpace=wrap;html=1;" vertex="1" parent="1">
          <mxGeometry x="264.5" y="386" width="139" height="35" as="geometry" />
        </mxCell>
        <mxCell id="P5DT8XNTaOlzUunPJP3p-5" value="GatewayService" style="rounded=1;whiteSpace=wrap;html=1;" vertex="1" parent="1">
          <mxGeometry x="417.5" y="386" width="139" height="35" as="geometry" />
        </mxCell>
        <mxCell id="P5DT8XNTaOlzUunPJP3p-6" value="ContentService" style="rounded=1;whiteSpace=wrap;html=1;" vertex="1" parent="1">
          <mxGeometry x="107.5" y="386" width="139" height="35" as="geometry" />
        </mxCell>
        <mxCell id="P5DT8XNTaOlzUunPJP3p-7" value="BusService" style="rounded=0;whiteSpace=wrap;html=1;fillColor=default;" vertex="1" parent="1">
          <mxGeometry x="107.5" y="430" width="600" height="28" as="geometry" />
        </mxCell>
        <mxCell id="P5DT8XNTaOlzUunPJP3p-8" value="Kafka" style="shape=process;whiteSpace=wrap;html=1;backgroundOutline=1;fillColor=default;" vertex="1" parent="1">
          <mxGeometry x="492" y="510" width="120" height="33" as="geometry" />
        </mxCell>
        <mxCell id="P5DT8XNTaOlzUunPJP3p-9" value="Flink" style="shape=hexagon;perimeter=hexagonPerimeter2;whiteSpace=wrap;html=1;fixedSize=1;fillColor=default;" vertex="1" parent="1">
          <mxGeometry x="238" y="513" width="107" height="33" as="geometry" />
        </mxCell>
        <mxCell id="P5DT8XNTaOlzUunPJP3p-10" value="Redis" style="ellipse;whiteSpace=wrap;html=1;fillColor=default;" vertex="1" parent="1">
          <mxGeometry x="381" y="510" width="85" height="39" as="geometry" />
        </mxCell>
        <mxCell id="L3S6r5yGj9gq8XAJiR9G-18" value="UserDB" style="shape=cylinder3;whiteSpace=wrap;html=1;boundedLbl=1;backgroundOutline=1;size=15;fillColor=#f5f5f5;fontColor=#333333;strokeColor=#666666;" vertex="1" parent="1">
          <mxGeometry x="181.5" y="556" width="95" height="58" as="geometry" />
        </mxCell>
        <mxCell id="L3S6r5yGj9gq8XAJiR9G-19" value="ContentDB" style="shape=cylinder3;whiteSpace=wrap;html=1;boundedLbl=1;backgroundOutline=1;size=15;fillColor=#f5f5f5;fontColor=#333333;strokeColor=#666666;" vertex="1" parent="1">
          <mxGeometry x="374.5" y="556" width="95" height="58" as="geometry" />
        </mxCell>
        <mxCell id="L3S6r5yGj9gq8XAJiR9G-20" value="MediaDB" style="shape=cylinder3;whiteSpace=wrap;html=1;boundedLbl=1;backgroundOutline=1;size=15;fillColor=#f5f5f5;fontColor=#333333;strokeColor=#666666;" vertex="1" parent="1">
          <mxGeometry x="566.5" y="556" width="95" height="58" as="geometry" />
        </mxCell>
        <mxCell id="P5DT8XNTaOlzUunPJP3p-18" value="介绍" style="rounded=1;whiteSpace=wrap;html=1;" vertex="1" parent="1">
          <mxGeometry x="24" y="86" width="69" height="35" as="geometry" />
        </mxCell>
        <mxCell id="P5DT8XNTaOlzUunPJP3p-19" value="平台管理" style="rounded=1;whiteSpace=wrap;html=1;" vertex="1" parent="1">
          <mxGeometry x="633" y="86" width="139" height="35" as="geometry" />
        </mxCell>
        <mxCell id="P5DT8XNTaOlzUunPJP3p-20" value="租户管理" style="rounded=0;whiteSpace=wrap;html=1;" vertex="1" parent="1">
          <mxGeometry x="668" y="136" width="120" height="28" as="geometry" />
        </mxCell>
        <mxCell id="P5DT8XNTaOlzUunPJP3p-21" value="角色管理" style="rounded=0;whiteSpace=wrap;html=1;" vertex="1" parent="1">
          <mxGeometry x="668" y="204" width="120" height="28" as="geometry" />
        </mxCell>
        <mxCell id="P5DT8XNTaOlzUunPJP3p-22" value="用户管理" style="rounded=0;whiteSpace=wrap;html=1;" vertex="1" parent="1">
          <mxGeometry x="668" y="239" width="120" height="28" as="geometry" />
        </mxCell>
        <mxCell id="P5DT8XNTaOlzUunPJP3p-25" value="DBService" style="rounded=0;whiteSpace=wrap;html=1;fillColor=default;" vertex="1" parent="1">
          <mxGeometry x="107.5" y="466" width="600" height="28" as="geometry" />
        </mxCell>
        <mxCell id="P5DT8XNTaOlzUunPJP3p-27" value="项目管理" style="rounded=0;whiteSpace=wrap;html=1;" vertex="1" parent="1">
          <mxGeometry x="668" y="170" width="120" height="28" as="geometry" />
        </mxCell>
      </root>
    </mxGraphModel>
  </diagram>
</mxfile>
